<svg xmlns="http://www.w3.org/2000/svg" width="28.335" height="34.163" viewBox="0 0 28.335 34.163"><path d="M39.587,8.108H17.508a3.137,3.137,0,0,0-3.128,3.128V35.381a3.138,3.138,0,0,0,2.594,3.079v1.16a2.652,2.652,0,0,0,5.3,0v-1.11h12.54v1.11a2.652,2.652,0,1,0,5.3,0V38.46a3.138,3.138,0,0,0,2.594-3.079V11.236A3.137,3.137,0,0,0,39.587,8.108ZM19.626,34.714a1.856,1.856,0,1,1,1.856-1.856A1.856,1.856,0,0,1,19.626,34.714Zm17.844,0a1.856,1.856,0,1,1,1.856-1.856A1.856,1.856,0,0,1,37.469,34.714Zm2.652-7.358H16.974v-9.1a.809.809,0,0,1,.809-.809H39.312a.809.809,0,0,1,.809.809Zm.458-14.533a2.109,2.109,0,0,1-2.1,2.1H19.12a2.113,2.113,0,0,1-2.107-2.107v-.061A2.113,2.113,0,0,1,19.12,10.65H38.476a2.109,2.109,0,0,1,2.1,2.1Z" transform="translate(-14.38 -8.108)"/></svg>