<svg xmlns="http://www.w3.org/2000/svg" width="44.13" height="27.579" viewBox="0 0 44.13 27.579"><defs><style>.a{fill:#e2574c;}.b{fill:#f4b459;}</style></defs><path class="a" d="M27.571,68.508A13.785,13.785,0,1,1,13.785,54.719,13.786,13.786,0,0,1,27.571,68.508Z" transform="translate(0 -54.719)"/><path class="b" d="M123.221,54.719a13.709,13.709,0,0,0-8.238,2.75h.011a11.816,11.816,0,0,1,1.336,1.248l-2.868.046a14.181,14.181,0,0,0-1.245,1.46h5.058a12.814,12.814,0,0,1,1.063,1.373H111.3a13.74,13.74,0,0,0-.7,1.375h8.544a11.744,11.744,0,0,1,.593,1.331h-9.643a13.281,13.281,0,0,0-.383,1.459h10.43c.1.477.181.918.234,1.368H109.5c-.046.454-.069.914-.069,1.379h11.019a12.113,12.113,0,0,1-.084,1.379H109.5q.07.7.207,1.379H120.12c-.108.447-.232.9-.387,1.362h-9.675a13.385,13.385,0,0,0,.518,1.376h8.563a12.56,12.56,0,0,1-.8,1.373h-7.062a13.417,13.417,0,0,0,.92,1.384l5.08.076a13.423,13.423,0,0,1-1.495,1.288c.028.022-.809,0-2.457-.029a13.786,13.786,0,1,0,9.9-23.379Z" transform="translate(-92.88 -54.719)"/></svg>